# 3ds Max Wavefront OBJ Exporter v0.97b - (c)2007 guruware
# File Created: 14.01.2022 02:52:47

#
# object Plane002
#

v  -8.3257 1.7942 1.2701
v  -4.4174 1.7942 1.2701
v  -4.4174 1.7942 -4.5719
v  -8.3257 1.7942 -4.5719
v  -8.3257 0.3132 -4.5719
v  -8.3257 0.3132 1.2701
v  -8.2057 1.6742 -4.3719
v  -4.5589 1.6742 -4.4305
v  -4.5589 0.4332 -4.4305
v  -8.2057 0.4332 -4.3719
v  -4.5589 1.6742 1.1287
v  -4.5589 0.4332 1.1287
v  -8.2057 1.6742 1.0701
v  -8.2057 0.4332 1.0701
v  -4.4174 0.3132 -4.5719
v  -4.4174 0.3132 1.2701
v  -4.4174 1.6742 -4.5719
v  -8.2057 1.6742 -4.5719
v  -4.4174 1.6742 1.2701
v  -8.2057 1.6742 1.2701
v  -8.2057 0.4332 1.2701
v  -4.4174 0.4332 1.2701
v  -4.4174 0.4332 -4.5719
v  -8.2057 0.4332 -4.5719
# 24 vertices

vn 0.0000 1.0000 -0.0000
vn -1.0000 0.0000 -0.0000
vn -0.0161 0.0000 -0.9999
vn 1.0000 -0.0000 -0.0000
vn -0.0161 0.0000 0.9999
vn -0.0000 -1.0000 -0.0000
vn 0.0000 0.0000 -1.0000
vn 0.0000 0.0000 1.0000
vn -0.0000 -1.0000 0.0000
# 9 vertex normals

vt 0.5511 0.4000 0.0000
vt 0.9419 0.4000 0.0000
vt 0.9419 0.9832 0.0000
vt 0.5511 0.9832 0.0000
vt 0.4030 0.9832 0.0000
vt 0.4030 0.4000 0.0000
vt 0.0181 0.2750 0.0000
vt 0.4142 0.2750 0.0000
vt 0.4142 0.3853 0.0000
vt 0.0181 0.3853 0.0000
vt 0.5933 0.2582 0.0000
vt 0.0144 0.2582 0.0000
vt 0.0144 0.1457 0.0000
vt 0.5933 0.1457 0.0000
vt 0.9440 0.3881 0.0000
vt 0.5498 0.3881 0.0000
vt 0.5498 0.2760 0.0000
vt 0.9440 0.2744 0.0000
vt 0.0122 0.9832 0.0000
vt 0.0122 0.4000 0.0000
vt 0.4072 0.1200 0.0000
vt 0.0171 0.1200 0.0000
vt 0.0171 0.1080 0.0000
vt 0.3952 0.1080 0.0000
vt 0.9933 0.4021 0.0000
vt 0.9933 0.9852 0.0000
vt 0.9813 0.9852 0.0000
vt 0.9813 0.4021 0.0000
vt 0.9384 0.1158 0.0000
vt 0.5483 0.1158 0.0000
vt 0.5603 0.1039 0.0000
vt 0.9384 0.1039 0.0000
vt 0.4055 0.1018 0.0000
vt 0.5533 0.1018 0.0000
vt 0.5414 0.1138 0.0000
vt 0.4175 0.1138 0.0000
vt 0.5454 0.0791 0.0000
vt 0.9355 0.0791 0.0000
vt 0.9355 0.0911 0.0000
vt 0.5574 0.0911 0.0000
vt 0.9932 0.4021 0.0000
vt 0.9932 0.9852 0.0000
vt 0.0160 0.0827 0.0000
vt 0.4061 0.0827 0.0000
vt 0.3941 0.0947 0.0000
vt 0.0160 0.0947 0.0000
vt 0.5517 0.0946 0.0000
vt 0.4039 0.0946 0.0000
vt 0.4159 0.0826 0.0000
vt 0.5397 0.0826 0.0000
vt 0.5354 0.0334 0.0000
vt 0.9135 0.0334 0.0000
vt 0.8994 0.0475 0.0000
vt 0.5354 0.0534 0.0000
vt 0.9672 0.9711 0.0000
vt 0.9672 0.4162 0.0000
vt 0.0349 0.0561 0.0000
vt 0.4130 0.0561 0.0000
vt 0.4130 0.0760 0.0000
vt 0.0490 0.0702 0.0000
vt 0.5369 0.0561 0.0000
vt 0.5369 0.0760 0.0000
vt 0.9150 0.0561 0.0000
vt 0.9009 0.0702 0.0000
vt 0.0334 0.0334 0.0000
vt 0.4116 0.0334 0.0000
vt 0.4116 0.0534 0.0000
vt 0.0475 0.0475 0.0000
# 68 texture coords

g Plane002
s 1
f 1/1/1 2/2/1 3/3/1 
f 3/3/1 4/4/1 1/1/1 
s 2
f 1/1/2 4/4/2 5/5/2 
f 5/5/2 6/6/2 1/1/2 
s 1
f 7/7/3 8/8/3 9/9/3 
f 9/9/3 10/10/3 7/7/3 
s 2
f 8/11/4 11/12/4 12/13/4 
f 12/13/4 9/14/4 8/11/4 
s 1
f 11/15/5 13/16/5 14/17/5 
f 14/17/5 12/18/5 11/15/5 
f 15/19/6 16/20/6 6/6/6 
f 6/6/6 5/5/6 15/19/6 
s 4
f 4/21/7 3/22/7 17/23/7 
f 17/23/7 18/24/7 4/21/7 
s 2
f 3/25/4 2/26/4 19/27/4 
f 19/27/4 17/28/4 3/25/4 
s 4
f 2/29/8 1/30/8 20/31/8 
f 20/31/8 19/32/8 2/29/8 
f 1/33/8 6/34/8 21/35/8 
f 21/35/8 20/36/8 1/33/8 
f 6/37/8 16/38/8 22/39/8 
f 22/39/8 21/40/8 6/37/8 
s 2
f 16/41/4 15/42/4 23/27/4 
f 23/27/4 22/28/4 16/41/4 
s 4
f 15/43/7 5/44/7 24/45/7 
f 24/45/7 23/46/7 15/43/7 
f 5/47/7 4/48/7 18/49/7 
f 18/49/7 24/50/7 5/47/7 
s 8
f 18/51/6 17/52/6 8/53/6 
f 8/53/6 7/54/6 18/51/6 
f 17/28/6 19/27/9 11/55/9 
f 11/55/9 8/56/6 17/28/6 
f 19/57/9 20/58/6 13/59/9 
f 13/59/9 11/60/9 19/57/9 
s 2
f 20/58/4 21/61/4 14/62/4 
f 14/62/4 13/59/4 20/58/4 
s 8
f 21/61/1 22/63/1 12/64/1 
f 12/64/1 14/62/1 21/61/1 
f 22/28/1 23/27/1 9/55/1 
f 9/55/1 12/56/1 22/28/1 
f 23/65/1 24/66/1 10/67/1 
f 10/67/1 9/68/1 23/65/1 
s 2
f 24/66/4 18/51/4 7/54/4 
f 7/54/4 10/67/4 24/66/4 
# 44 faces

